<?xml version="1.0" encoding="UTF-8"?>
<svg version="1.1" xmlns="http://www.w3.org/2000/svg" width="1044" height="1042">
<path d="M0 0 C1.05445313 0.56460937 2.10890625 1.12921875 3.1953125 1.7109375 C14.95445272 8.250616 25.24531889 16.78258188 35 26 C36.04607422 26.98419922 36.04607422 26.98419922 37.11328125 27.98828125 C62.87884305 52.95335957 80.65779154 90.91918409 82.16113281 126.85131836 C82.19893707 130.44206363 82.23112132 134.03236673 82.24023438 137.62329102 C82.24984572 139.90093872 82.28089299 142.17764487 82.3125 144.45507812 C82.4148507 158.52358632 80.26077607 171.91731101 76.3125 185.4375 C76.05686279 186.3138208 75.80122559 187.1901416 75.5378418 188.09301758 C63.54434637 227.68406433 35.26861005 261.38473385 -1 281 C-37.88653958 300.63673021 -81.25302495 305.81941506 -121.5703125 294.0859375 C-146.93399348 286.05506812 -168.41452999 274.07436661 -188 256 C-188.81726563 255.25363281 -189.63453125 254.50726562 -190.4765625 253.73828125 C-218.81699858 226.64963121 -236.19024208 186.2126757 -237.203125 147.13671875 C-237.70339939 105.66846133 -225.51260428 66.54222814 -198 35 C-197.17242187 34.04996094 -196.34484375 33.09992188 -195.4921875 32.12109375 C-170.41925789 3.9428013 -133.58650899 -15.13225897 -96 -19 C-94.98164063 -19.12117188 -93.96328125 -19.24234375 -92.9140625 -19.3671875 C-60.65572649 -22.50873566 -28.29825043 -15.58385444 0 0 Z M-150 83 C-165.98928034 103.5815643 -173.34860972 128.67349702 -170.375 154.625 C-166.67740328 178.13859039 -154.46063275 200.68827465 -135.35400391 215.25488281 C-114.22643432 230.35376288 -89.02890531 237.37445239 -63.1875 233.3515625 C-38.98861255 228.80047896 -17.38872518 215.33657512 -3.09375 195.21484375 C10.90942099 173.71370621 17.12627834 148.40080418 11.82177734 122.85351562 C5.5785258 97.06643254 -9.16181787 77.2065956 -31.1875 62.8125 C-70.17271013 39.67943205 -120.42152712 48.50753162 -150 83 Z " fill="#C51C1E" transform="translate(603,379)"/>
<path d="M0 0 C1.27897858 1.1268973 2.53367999 2.2823909 3.75390625 3.47265625 C6.30290254 5.90216833 9.15751626 7.85902434 12.03515625 9.87890625 C12.51984375 10.29527344 13.00453125 10.71164063 13.50390625 11.140625 C13.50390625 11.800625 13.50390625 12.460625 13.50390625 13.140625 C14.10203125 13.429375 14.70015625 13.718125 15.31640625 14.015625 C17.50390625 15.140625 17.50390625 15.140625 20.50390625 17.140625 C20.50390625 17.800625 20.50390625 18.460625 20.50390625 19.140625 C21.03757813 19.36492187 21.57125 19.58921875 22.12109375 19.8203125 C25.29617793 21.57962144 27.90493018 23.89391831 30.62890625 26.265625 C34.59467801 29.67535381 38.57854238 33.03269238 42.69140625 36.265625 C47.13057596 39.77482135 51.31426451 43.51948397 55.47265625 47.35546875 C57.38072075 49.18508438 57.38072075 49.18508438 59.50390625 50.140625 C59.50390625 50.800625 59.50390625 51.460625 59.50390625 52.140625 C60.10203125 52.429375 60.70015625 52.718125 61.31640625 53.015625 C63.50390625 54.140625 63.50390625 54.140625 66.50390625 56.140625 C66.50390625 56.800625 66.50390625 57.460625 66.50390625 58.140625 C67.05304688 58.37910156 67.6021875 58.61757813 68.16796875 58.86328125 C71.07358412 60.45213782 73.36245854 62.4236321 75.87890625 64.578125 C81.02613641 68.94495824 86.27820577 73.15365414 91.60693359 77.29663086 C93.244189 78.57183315 94.87530448 79.85439414 96.50390625 81.140625 C97.36870605 81.81617432 97.36870605 81.81617432 98.25097656 82.50537109 C99.70688648 83.67086664 101.11060298 84.90096394 102.50390625 86.140625 C102.50390625 86.800625 102.50390625 87.460625 102.50390625 88.140625 C103.08785156 88.40488281 103.67179688 88.66914063 104.2734375 88.94140625 C106.58931652 90.18654611 108.25625004 91.55524604 110.19140625 93.328125 C113.90738402 96.6732048 117.79514945 99.69176229 121.81640625 102.66015625 C122.37328125 103.14871094 122.93015625 103.63726562 123.50390625 104.140625 C123.50390625 104.800625 123.50390625 105.460625 123.50390625 106.140625 C124.01953125 106.3675 124.53515625 106.594375 125.06640625 106.828125 C128.3993763 108.62280118 131.65094296 110.64027515 134.50390625 113.140625 C134.50390625 113.800625 134.50390625 114.460625 134.50390625 115.140625 C135.08857666 115.41140869 135.67324707 115.68219238 136.27563477 115.96118164 C138.49052789 117.13354372 140.23271201 118.41212361 142.15625 120.01171875 C142.84380371 120.58051758 143.53135742 121.14931641 144.23974609 121.73535156 C145.32956787 122.64752441 145.32956787 122.64752441 146.44140625 123.578125 C147.19631348 124.20557617 147.9512207 124.83302734 148.72900391 125.47949219 C150.99091153 127.36226374 153.24784713 129.25085207 155.50390625 131.140625 C156.1263623 131.65963379 156.74881836 132.17864258 157.39013672 132.71337891 C164.00462072 138.2294825 170.45566646 143.88818051 176.796875 149.71875 C180.45580896 152.99225513 184.2574243 156.0705319 188.09375 159.1328125 C190.36848859 161.02781353 192.44773024 163.01288834 194.50390625 165.140625 C193.84390625 166.460625 193.18390625 167.780625 192.50390625 169.140625 C183.51219599 167.75221645 174.8565653 165.40393645 166.12890625 162.890625 C164.7024293 162.483554 163.27583287 162.07690148 161.84912109 161.6706543 C159.0262789 160.86616533 156.20425922 160.05888031 153.3828125 159.24951172 C150.05178306 158.29518765 146.71655403 157.35673206 143.37890625 156.42578125 C134.61512604 153.973509 125.95393683 151.34993912 117.34423828 148.40087891 C110.37632341 146.03773854 103.31786758 144.02813537 96.23046875 142.05664062 C94.95816406 141.70182617 94.95816406 141.70182617 93.66015625 141.33984375 C92.52803711 141.02793091 92.52803711 141.02793091 91.37304688 140.7097168 C89.50390625 140.140625 89.50390625 140.140625 87.50390625 139.140625 C87.50390625 139.800625 87.50390625 140.460625 87.50390625 141.140625 C88.16390625 141.140625 88.82390625 141.140625 89.50390625 141.140625 C91.12890625 142.515625 91.12890625 142.515625 92.50390625 144.140625 C92.50390625 144.800625 92.50390625 145.460625 92.50390625 146.140625 C93.05433594 146.36234375 93.60476563 146.5840625 94.171875 146.8125 C97.25414077 148.56789424 99.3541785 150.84133121 101.81640625 153.390625 C104.98962706 156.65002548 108.17421591 159.81041539 111.69140625 162.703125 C112.61953125 163.5075 113.54765625 164.311875 114.50390625 165.140625 C114.50390625 165.800625 114.50390625 166.460625 114.50390625 167.140625 C115.10203125 167.40875 115.70015625 167.676875 116.31640625 167.953125 C118.50238479 169.13979906 119.91723219 170.23661613 121.50390625 172.140625 C121.50390625 172.800625 121.50390625 173.460625 121.50390625 174.140625 C122.38369141 174.54474609 122.38369141 174.54474609 123.28125 174.95703125 C125.50099904 176.13907687 127.18229993 177.42162884 129.06640625 179.078125 C129.93458984 179.83416016 129.93458984 179.83416016 130.8203125 180.60546875 C134.20522204 183.69194079 134.20522204 183.69194079 135.50390625 185.140625 C135.50390625 185.800625 135.50390625 186.460625 135.50390625 187.140625 C136.33921875 187.511875 136.33921875 187.511875 137.19140625 187.890625 C139.92801538 189.36987318 142.18041494 191.07529939 144.50390625 193.140625 C144.50390625 193.800625 144.50390625 194.460625 144.50390625 195.140625 C145.32568359 195.47126953 145.32568359 195.47126953 146.1640625 195.80859375 C149.23939619 197.55932629 151.50549346 199.93009566 153.94140625 202.453125 C154.6384668 203.1637207 154.6384668 203.1637207 155.34960938 203.88867188 C156.73713383 205.30328886 158.12054132 206.72194012 159.50390625 208.140625 C162.07898731 210.74209781 164.64588959 213.26717536 167.37890625 215.703125 C168.08015625 216.5075 168.78140625 217.311875 169.50390625 218.140625 C169.31640625 220.453125 169.31640625 220.453125 168.50390625 222.140625 C163.76374417 221.57316715 159.51148692 220.62963791 155.00390625 219.06640625 C153.79549072 218.6494751 152.5870752 218.23254395 151.34204102 217.80297852 C150.06251261 217.35345449 148.78313734 216.9034944 147.50390625 216.453125 C146.17704097 215.99069206 144.85013645 215.52837173 143.52319336 215.06616211 C136.18511816 212.49850679 128.93020867 209.80319377 121.74609375 206.828125 C115.46284074 204.27727318 109.06270087 202.02278987 102.69140625 199.703125 C94.5381949 196.73271901 86.38921699 193.76250214 78.31640625 190.578125 C68.55736076 186.72886039 58.70963545 183.12164227 48.8671875 179.4921875 C43.92451457 177.66918319 38.99255616 175.82018078 34.06640625 173.953125 C29.16849321 172.10671005 24.25007045 170.34947983 19.30151367 168.64379883 C10.86740965 165.73651831 2.55979335 162.62441075 -5.70507812 159.26660156 C-15.17301548 155.43153433 -24.74504258 151.87996024 -34.32080078 148.32470703 C-37.24092176 147.23577986 -40.15653369 146.13534771 -43.0718689 145.03369141 C-49.59876597 142.57141232 -56.1467843 140.17995378 -62.72265625 137.8515625 C-64.28386159 137.29689589 -65.84505949 136.74220834 -67.40625 136.1875 C-69.78327448 135.34325841 -72.16107991 134.50160524 -74.54150391 133.66699219 C-76.89631601 132.84025718 -79.24720084 132.00309076 -81.59765625 131.1640625 C-82.30395172 130.91917084 -83.01024719 130.67427917 -83.73794556 130.42196655 C-90.02845847 128.15844303 -95.07777134 124.561363 -100.37109375 120.515625 C-101.54285156 119.63003906 -101.54285156 119.63003906 -102.73828125 118.7265625 C-103.31835938 118.20320312 -103.8984375 117.67984375 -104.49609375 117.140625 C-104.49609375 116.480625 -104.49609375 115.820625 -104.49609375 115.140625 C-105.48609375 114.810625 -106.47609375 114.480625 -107.49609375 114.140625 C-122.67468026 98.60384176 -127.18843579 77.55894198 -127.52978516 56.7109375 C-127.38845618 45.92897034 -123.30678286 36.62163828 -118.49609375 27.140625 C-118.14417969 26.37878906 -117.79226562 25.61695313 -117.4296875 24.83203125 C-115.11468049 19.86299948 -112.24517243 15.16820667 -108.49609375 11.140625 C-107.83609375 11.140625 -107.17609375 11.140625 -106.49609375 11.140625 C-106.25503906 10.55796875 -106.01398438 9.9753125 -105.765625 9.375 C-99.89064525 -0.96496436 -83.54264248 -8.88183913 -72.5625 -12.1171875 C-47.52141785 -18.17808636 -21.13449761 -15.74338163 0 0 Z " fill="#C51C1E" transform="translate(189.49609375,235.859375)"/>
<path d="M0 0 C1.98 0.99 1.98 0.99 4 2 C2.63113873 10.6369156 0.49201298 18.96286466 -1.875 27.375 C-2.38353516 29.21191406 -2.38353516 29.21191406 -2.90234375 31.0859375 C-4.85059052 38.07888406 -6.91156718 45.02729955 -9.06689453 51.95898438 C-10.45196173 56.47295533 -11.72604579 61.0161896 -13 65.5625 C-14.58886686 71.19244148 -16.20661957 76.78393907 -18.125 82.3125 C-19.74062427 87.0100294 -21.03750411 91.74849394 -22.25 96.5625 C-22.42547363 97.25448486 -22.60094727 97.94646973 -22.78173828 98.65942383 C-23.48458233 101.52009129 -24 104.04201346 -24 107 C-22.70522938 105.73232923 -21.41429661 104.46073776 -20.125 103.1875 C-19.40570313 102.47980469 -18.68640625 101.77210938 -17.9453125 101.04296875 C-15.84641063 98.95600806 -15.84641063 98.95600806 -14 96 C-13.34 96 -12.68 96 -12 96 C-11.72800781 95.41089844 -11.45601562 94.82179688 -11.17578125 94.21484375 C-8.30040471 88.79843678 -3.49755811 84.1227616 1 80 C1.66 80 2.32 80 3 80 C3.4021875 79.1028125 3.4021875 79.1028125 3.8125 78.1875 C4.99917406 76.00152146 6.09599113 74.58667406 8 73 C8.66 73 9.32 73 10 73 C10.40412109 72.12021484 10.40412109 72.12021484 10.81640625 71.22265625 C11.99845187 69.00290721 13.28100384 67.32160632 14.9375 65.4375 C15.44152344 64.85871094 15.94554687 64.27992188 16.46484375 63.68359375 C19.55131579 60.29868421 19.55131579 60.29868421 21 59 C21.66 59 22.32 59 23 59 C23.309375 58.38125 23.61875 57.7625 23.9375 57.125 C24.625 55.75 25.3125 54.375 26 53 C26.66 53 27.32 53 28 53 C28.26409668 52.41444336 28.52819336 51.82888672 28.80029297 51.22558594 C30.04720158 48.91243597 31.39163445 47.29425111 33.1953125 45.390625 C34.1402356 44.38696899 34.1402356 44.38696899 35.10424805 43.36303711 C35.77109619 42.66573486 36.43794434 41.96843262 37.125 41.25 C37.80280518 40.53787354 38.48061035 39.82574707 39.17895508 39.09204102 C40.51678326 37.68907814 41.85664971 36.28805555 43.19873047 34.88916016 C44.69321406 33.32175516 46.16421134 31.73199567 47.62890625 30.13671875 C48.30824219 29.41097656 48.98757813 28.68523438 49.6875 27.9375 C50.24824219 27.32777344 50.80898438 26.71804688 51.38671875 26.08984375 C53 25 53 25 55.20703125 25.31640625 C55.79871094 25.54199219 56.39039063 25.76757812 57 26 C56.40078085 31.7540403 54.85357398 36.76592937 52.875 42.1875 C52.23926838 43.96212679 51.60386122 45.73686984 50.96875 47.51171875 C50.64261719 48.41712402 50.31648437 49.3225293 49.98046875 50.25537109 C49.02084922 52.94163673 48.08408539 55.63463855 47.15625 58.33203125 C44.34549562 66.49653063 41.45288429 74.55220481 38.046875 82.4921875 C36.47372001 86.26071549 35.23515936 90.11016979 34 94 C30.61751068 104.56852472 26.82895431 114.96192931 22.95068359 125.35791016 C19.54258755 134.50062489 16.22033918 143.67167366 12.95605469 152.86669922 C11.54469118 156.82075731 10.12124254 160.71985626 8.453125 164.57421875 C6.58110306 168.98756079 5.15268266 173.50112129 3.6875 178.0625 C1.68020088 184.21679933 -0.41226383 190.21776307 -3.0625 196.125 C-5.79033701 202.22635884 -7.82962955 208.4187977 -9.73266602 214.81494141 C-11.45172893 220.5278056 -13.52659395 226.05365241 -15.69506836 231.6105957 C-17.82343703 237.13877947 -19.77645882 242.72762083 -21.75 248.3125 C-22.62811449 250.76721046 -23.50703598 253.22163237 -24.38671875 255.67578125 C-26.06141717 260.35198337 -27.70724618 265.0367224 -29.33203125 269.73046875 C-33.20953541 280.74639311 -36.7871499 290.43199963 -45 299 C-45.93392578 299.98033203 -45.93392578 299.98033203 -46.88671875 300.98046875 C-52.51205151 306.3227659 -59.32361018 310.13294025 -66 314 C-66.67675781 314.41378906 -67.35351562 314.82757812 -68.05078125 315.25390625 C-76.92178147 320.26966025 -88.89976404 322.53326082 -99 323 C-100.21623047 323.09474609 -100.21623047 323.09474609 -101.45703125 323.19140625 C-119.33807084 324.00299077 -139.60690336 314.97191427 -152.84765625 303.1796875 C-155.97679273 300.01079792 -158.5389953 296.7017898 -161 293 C-162.22833839 291.27024486 -163.45753526 289.54109909 -164.6875 287.8125 C-175.84560088 271.93465071 -180.70875453 249.97378517 -177.3359375 230.640625 C-177.03039632 229.17392841 -176.70967441 227.7103244 -176.375 226.25 C-176.19751221 225.47068115 -176.02002441 224.6913623 -175.8371582 223.88842773 C-172.6450705 210.70430647 -166.13019812 197.23635711 -156 188 C-155.67 187.34 -155.34 186.68 -155 186 C-154.34 186 -153.68 186 -153 186 C-152.71125 185.401875 -152.4225 184.80375 -152.125 184.1875 C-151 182 -151 182 -149 179 C-148.34 179 -147.68 179 -147 179 C-146.7525 178.44183594 -146.505 177.88367188 -146.25 177.30859375 C-144.77609467 174.58647484 -142.9945097 172.43098027 -141 170.0625 C-138.34901368 166.88303504 -135.7456219 163.69644809 -133.25390625 160.390625 C-132.80466797 159.79499756 -132.35542969 159.19937012 -131.89257812 158.58569336 C-131.01507084 157.41584472 -130.14254953 156.24223721 -129.27539062 155.06469727 C-128.22957094 153.67400207 -127.11998025 152.33169674 -126 151 C-125.34 151 -124.68 151 -124 151 C-123.7628125 150.45859375 -123.525625 149.9171875 -123.28125 149.359375 C-121.65652243 146.36749863 -119.6498123 143.88840601 -117.5 141.25 C-116.7059375 140.26515625 -115.911875 139.2803125 -115.09375 138.265625 C-114.4028125 137.51796875 -113.711875 136.7703125 -113 136 C-112.34 136 -111.68 136 -111 136 C-110.77570313 135.47664062 -110.55140625 134.95328125 -110.3203125 134.4140625 C-108.52121433 131.12458715 -106.21087971 128.29149462 -103.875 125.375 C-103.3814502 124.75326904 -102.88790039 124.13153809 -102.37939453 123.4909668 C-100.92292141 121.6579663 -99.46178003 119.82876917 -98 118 C-97.278125 117.09121094 -96.55625 116.18242188 -95.8125 115.24609375 C-91.58588306 109.93725836 -87.29453229 104.68327284 -82.98046875 99.4453125 C-81.72530031 97.89553844 -80.51282408 96.30934965 -79.36328125 94.6796875 C-78.91339844 94.12539063 -78.46351563 93.57109375 -78 93 C-77.34 93 -76.68 93 -76 93 C-75.7525 92.44828125 -75.505 91.8965625 -75.25 91.328125 C-73.75765526 88.54863293 -71.96327477 86.2185293 -70 83.75 C-69.29875 82.85796875 -68.5975 81.9659375 -67.875 81.046875 C-67.25625 80.37140625 -66.6375 79.6959375 -66 79 C-65.34 79 -64.68 79 -64 79 C-63.77828125 78.47921875 -63.5565625 77.9584375 -63.328125 77.421875 C-61.49601499 74.08096851 -59.12864818 71.21005153 -56.75 68.25 C-55.75183891 66.99670284 -54.75443737 65.74280036 -53.7578125 64.48828125 C-53.27989258 63.88709473 -52.80197266 63.2859082 -52.30957031 62.66650391 C-50.27468845 60.07699914 -48.33100887 57.42363497 -46.4140625 54.74609375 C-45 53 -45 53 -42.6640625 50.69921875 C-39.75701394 47.75380738 -37.26670013 44.65110793 -34.75 41.375 C-33.78846497 40.1400761 -32.8262145 38.90570895 -31.86328125 37.671875 C-31.38584473 37.05892578 -30.9084082 36.44597656 -30.41650391 35.81445312 C-28.27411891 33.07019162 -26.11542558 30.34124967 -23.9375 27.625 C-23.22464844 26.73039063 -22.51179687 25.83578125 -21.77734375 24.9140625 C-20.89755859 23.96660156 -20.89755859 23.96660156 -20 23 C-19.34 23 -18.68 23 -18 23 C-17.65195312 22.18982422 -17.65195312 22.18982422 -17.296875 21.36328125 C-15.61872332 18.30520364 -13.50441012 15.8483871 -11.25 13.1875 C-10.80479004 12.65995117 -10.35958008 12.13240234 -9.90087891 11.58886719 C-8.60494156 10.05555285 -7.30259569 8.52766192 -6 7 C-5.34257812 6.22785156 -4.68515625 5.45570313 -4.0078125 4.66015625 C-2.67654617 3.10276574 -1.33916093 1.55060739 0 0 Z " fill="#C51C1E" transform="translate(398,659)"/>
<path d="M0 0 C17.14393144 -0.5488641 35.06560513 4.02161234 51.44921875 8.62890625 C58.30747072 10.53224944 65.26774642 11.81249325 72.25585938 13.13867188 C78.05822108 14.26417706 83.78506676 15.54242609 89.51171875 17.0078125 C98.3019818 19.2569324 107.16596078 21.09999969 116.05224609 22.92611694 C120.80728964 23.9038555 125.55989366 24.89330566 130.3125 25.8828125 C131.24534821 26.07690201 132.17819641 26.27099152 133.13931274 26.47096252 C143.73911554 28.68151436 154.30613013 31.03093143 164.86816406 33.41503906 C168.21370956 34.16646168 171.56157899 34.90674084 174.91015625 35.64453125 C186.19276027 38.13200971 197.46365583 40.64879723 208.68896484 43.38500977 C221.67737697 46.53400679 234.79653259 49.12224777 247.88671875 51.80859375 C249.46094851 52.13210787 251.03516733 52.45567529 252.609375 52.77929688 C256.41003077 53.56050788 260.21083225 54.34100613 264.01171875 55.12109375 C264.34171875 56.77109375 264.67171875 58.42109375 265.01171875 60.12109375 C258.98779881 62.53346681 253.02925473 64.21579206 246.69921875 65.62109375 C245.26376709 65.944729 245.26376709 65.944729 243.79931641 66.27490234 C236.72882812 67.83197502 229.64437015 69.04564294 222.48388672 70.09985352 C218.35295776 70.71709369 214.36087722 71.45982354 210.32421875 72.55859375 C204.44870701 74.13635355 198.51085253 75.08913148 192.51171875 76.05859375 C184.52584455 77.34992128 176.5700305 78.72382583 168.63671875 80.30859375 C167.37118164 80.55887329 167.37118164 80.55887329 166.08007812 80.81420898 C161.92997346 81.60637382 161.92997346 81.60637382 158.01171875 83.12109375 C158.62917969 83.30285156 159.24664062 83.48460937 159.8828125 83.671875 C164.07854194 84.91718282 168.25136626 86.18699903 172.38671875 87.62109375 C176.78780836 89.10867745 181.25029204 90.20560268 185.76171875 91.3046875 C193.10783831 93.15004686 200.42288292 95.18193598 207.57421875 97.68359375 C211.03579538 98.87351072 214.49899255 99.71182232 218.07421875 100.49609375 C223.80658207 101.77069374 229.33268439 103.41836243 234.91699219 105.20996094 C241.88559423 107.43256063 248.93367397 109.27670346 256.01171875 111.12109375 C258.15843906 111.70115443 260.30437262 112.28414097 262.44921875 112.87109375 C263.33480469 113.1134375 264.22039062 113.35578125 265.1328125 113.60546875 C265.75285156 113.775625 266.37289063 113.94578125 267.01171875 114.12109375 C267.39390642 115.77724032 267.72566977 117.44566399 268.01171875 119.12109375 C265.47934265 121.65346985 259.60512637 121.45556662 256.19921875 121.99609375 C255.08353516 122.17390381 253.96785156 122.35171387 252.81835938 122.53491211 C243.53846279 123.96958206 234.24205844 125.06295437 224.89916992 125.99365234 C204.79232406 127.99712688 184.75047904 130.62926667 164.71362305 133.22827148 C161.15639969 133.68914134 157.59872027 134.14637768 154.04101562 134.60351562 C151.73304458 134.90212484 149.42510084 135.20094513 147.1171875 135.5 C146.0763652 135.63338272 145.03554291 135.76676544 143.96318054 135.90419006 C137.87054289 136.69850827 131.81559152 137.62364417 125.76235962 138.67802429 C120.93136315 139.45619458 116.06744156 139.89394836 111.19921875 140.37109375 C98.11149019 141.71857271 85.06181582 143.32604106 72.01171875 144.99609375 C71.00308777 145.12508057 69.99445679 145.25406738 68.95526123 145.38696289 C56.15596761 147.02840214 43.36946207 148.74624426 30.59234619 150.55184937 C26.27136527 151.16003781 21.94860269 151.75538084 17.62536621 152.3473053 C14.67387046 152.75168015 11.72386867 153.16300945 8.77587891 153.59228516 C-2.67271311 155.24522925 -10.90567616 155.16512515 -21.98828125 151.12109375 C-23.83946197 150.69135537 -25.69358045 150.27402094 -27.55078125 149.87109375 C-43.72626284 145.48128754 -58.16332346 131.34027662 -66.73828125 117.37109375 C-77.63047781 97.81580133 -78.42399845 76.59645677 -72.98828125 55.12109375 C-67.16127437 36.09503341 -52.9946961 20.04320373 -35.98828125 10.12109375 C-24.67577619 4.44300241 -12.6144817 0.76826902 0 0 Z " fill="#C51C1E" transform="translate(75.98828125,433.87890625)"/>
<path d="M0 0 C6.31825882 0.43883471 11.87438851 2.58199517 17.76953125 4.7890625 C18.80454269 5.17057465 19.83955414 5.55208679 20.90592957 5.94515991 C24.210555 7.16530303 27.51146878 8.39517092 30.8125 9.625 C32.98871001 10.42898735 35.16514045 11.23237829 37.34179688 12.03515625 C47.65389173 15.84686629 57.93504636 19.7257324 68.1703949 23.73893738 C73.36341146 25.76963304 78.59010664 27.65865361 83.875 29.4375 C91.58935032 32.08382952 99.15304556 35.01377571 106.70605469 38.08740234 C112.65413409 40.49584864 118.64928679 42.69018675 124.71435547 44.78369141 C129.79768219 46.54792579 134.80876239 48.45964552 139.8125 50.4375 C145.83077736 52.81171235 151.87924699 55.0299857 158 57.125 C167.26973794 60.30995821 176.41552873 63.79450203 185.5625 67.3125 C195.95766833 71.31047715 206.36176747 75.27370577 216.8125 79.125 C217.88113281 79.52162842 218.94976563 79.91825684 220.05078125 80.3269043 C225.28497987 82.26886442 230.52446745 84.19227462 235.78205872 86.06985474 C238.4105961 87.01256538 241.03324194 87.97101495 243.65512085 88.93206787 C245.49348813 89.59992866 247.3390521 90.24787686 249.18481445 90.89501953 C257.0340031 93.78720657 262.729824 97.5157877 269 103 C269.99 103.66 270.98 104.32 272 105 C272 105.66 272 106.32 272 107 C272.99 107.33 273.98 107.66 275 108 C289.50035697 124.04593766 296.1618316 143.72316898 295.375 165.109375 C294.46635316 179.63636628 289.03958448 192.94062328 281 205 C280.34 205 279.68 205 279 205 C278.7525 205.556875 278.505 206.11375 278.25 206.6875 C271.17227949 219.78128294 254.80163424 227.95544988 241.3125 232.8125 C239.88245692 233.23447993 238.44447331 233.63042304 237 234 C236.23300781 234.20367188 235.46601562 234.40734375 234.67578125 234.6171875 C218.50926054 238.23175415 199.01204418 237.21028764 184 230 C183.67 229.34 183.34 228.68 183 228 C179.97065509 227.34227572 179.97065509 227.34227572 177 227 C177 226.34 177 225.68 177 225 C176.29875 224.7525 175.5975 224.505 174.875 224.25 C168.9791013 221.68656578 163.47541308 217.63430348 159 213 C159 212.34 159 211.68 159 211 C157.35 210.34 155.7 209.68 154 209 C154 208.34 154 207.68 154 207 C153.401875 206.71125 152.80375 206.4225 152.1875 206.125 C150 205 150 205 147 203 C147 202.34 147 201.68 147 201 C146.45472656 200.7628125 145.90945313 200.525625 145.34765625 200.28125 C142.39684567 198.67082426 140.01295783 196.65847894 137.4375 194.5 C134.67088289 192.18760361 132.00123452 190.00082301 129 188 C129 187.34 129 186.68 129 186 C128.34 186 127.68 186 127 186 C127 185.34 127 184.68 127 184 C125.35 183.34 123.7 182.68 122 182 C122 181.34 122 180.68 122 180 C120.824375 179.62875 120.824375 179.62875 119.625 179.25 C116.56058543 177.79075497 116.38274239 176.94985044 115 174 C113.04978917 172.77472052 113.04978917 172.77472052 111 172 C110.34 171.67 109.68 171.34 109 171 C109 170.34 109 169.68 109 169 C108.401875 168.71125 107.80375 168.4225 107.1875 168.125 C105 167 105 167 102 165 C102 164.34 102 163.68 102 163 C100.35 162.34 98.7 161.68 97 161 C97 160.34 97 159.68 97 159 C96.1028125 158.566875 96.1028125 158.566875 95.1875 158.125 C93 157 93 157 90 155 C90 154.34 90 153.68 90 153 C89.43796875 152.7421875 88.8759375 152.484375 88.296875 152.21875 C85.73295421 150.85830223 83.54773635 149.27211038 81.25 147.5 C80.45078125 146.8915625 79.6515625 146.283125 78.828125 145.65625 C77.92320312 144.83640625 77.92320312 144.83640625 77 144 C77 143.34 77 142.68 77 142 C75.35 141.34 73.7 140.68 72 140 C72 139.34 72 138.68 72 138 C71.34 138 70.68 138 70 138 C70 137.34 70 136.68 70 136 C68.35 135.34 66.7 134.68 65 134 C65 133.34 65 132.68 65 132 C63.9171875 131.6596875 63.9171875 131.6596875 62.8125 131.3125 C59.41915701 129.72893994 57.63317739 127.66693608 55 125 C52.80909965 123.03745175 50.56424162 121.14217699 48.3125 119.25 C47.73177734 118.75628906 47.15105469 118.26257813 46.55273438 117.75390625 C43.46207646 115.1060016 43.46207646 115.1060016 40 113 C40 112.34 40 111.68 40 111 C39.401875 110.71125 38.80375 110.4225 38.1875 110.125 C36 109 36 109 33 107 C33 106.34 33 105.68 33 105 C31.68 104.67 30.36 104.34 29 104 C29 103.34 29 102.68 29 102 C28.401875 101.71125 27.80375 101.4225 27.1875 101.125 C25 100 25 100 22 98 C22 97.34 22 96.68 22 96 C21.401875 95.71125 20.80375 95.4225 20.1875 95.125 C18 94 18 94 15 92 C15 91.34 15 90.68 15 90 C14.443125 89.7525 13.88625 89.505 13.3125 89.25 C10.6006765 87.78414946 8.3847366 85.94544301 6 84 C5.34 83.67 4.68 83.34 4 83 C4 82.34 4 81.68 4 81 C3.34 81 2.68 81 2 81 C0.97895449 80.02149805 -0.0206121 79.02019573 -1 78 C-1.66 77.67 -2.32 77.34 -3 77 C-3 76.34 -3 75.68 -3 75 C-3.598125 74.71125 -4.19625 74.4225 -4.8125 74.125 C-7 73 -7 73 -10 71 C-10 70.34 -10 69.68 -10 69 C-10.598125 68.71125 -11.19625 68.4225 -11.8125 68.125 C-14 67 -14 67 -17 65 C-17 64.34 -17 63.68 -17 63 C-17.556875 62.773125 -18.11375 62.54625 -18.6875 62.3125 C-21.63246684 60.64103234 -23.68156544 58.44723648 -26 56 C-25.34 55.01 -24.68 54.02 -24 53 C-15.88794557 54.2530488 -8.24637856 56.3106716 -0.4375 58.8125 C7.01412541 61.15503914 14.45731832 63.46801802 22 65.5 C30.3733091 67.76738684 38.64821472 70.32838975 46.93164062 72.90258789 C55.79536923 75.6500575 64.69144558 78.27231423 73.61181641 80.82958984 C74.55460449 81.10109863 75.49739258 81.37260742 76.46875 81.65234375 C77.71301758 82.00800415 77.71301758 82.00800415 78.98242188 82.37084961 C81 83 81 83 83 84 C80.10666533 80.02166483 76.80064519 77.00127071 73.0859375 73.83203125 C70.46495575 71.53008286 68.04663004 69.06346788 65.609375 66.5703125 C63.8484933 64.79666638 63.8484933 64.79666638 61.0625 62.6875 C60.381875 62.130625 59.70125 61.57375 59 61 C59 60.34 59 59.68 59 59 C58.360625 58.731875 57.72125 58.46375 57.0625 58.1875 C55 57 55 57 54 54 C52.6846659 53.29848848 51.34882408 52.63474075 50 52 C48.25 50.5 48.25 50.5 47 49 C47 48.34 47 47.68 47 47 C46.41347656 46.73058594 45.82695313 46.46117187 45.22265625 46.18359375 C43.00290721 45.00154813 41.32160632 43.71899616 39.4375 42.0625 C38.85871094 41.55847656 38.27992188 41.05445313 37.68359375 40.53515625 C34.29868421 37.44868421 34.29868421 37.44868421 33 36 C33 35.34 33 34.68 33 34 C32.443125 33.7525 31.88625 33.505 31.3125 33.25 C28.57589087 31.77075182 26.32349131 30.06532561 24 28 C24 27.34 24 26.68 24 26 C23.01 25.67 22.02 25.34 21 25 C21 24.34 21 23.68 21 23 C20.34 23 19.68 23 19 23 C19 22.34 19 21.68 19 21 C14.545 20.01 14.545 20.01 10 19 C10 18.34 10 17.68 10 17 C10.66 16.67 11.32 16.34 12 16 C11.32904297 15.43732422 11.32904297 15.43732422 10.64453125 14.86328125 C0.49443758 6.27141091 0.49443758 6.27141091 -0.875 2.75 C-0.91625 2.1725 -0.9575 1.595 -1 1 C-0.67 0.67 -0.34 0.34 0 0 Z " fill="#C51C1E" transform="translate(686,584)"/>
<path d="M0 0 C0.53343018 0.36746338 1.06686035 0.73492676 1.61645508 1.11352539 C0.19991325 6.00866361 -2.79605591 8.72356357 -6.50854492 11.98852539 C-7.09676025 12.51808838 -7.68497559 13.04765137 -8.29101562 13.59326172 C-9.98021367 15.10970878 -11.67940788 16.61390588 -13.38354492 18.11352539 C-14.13764648 18.7799707 -14.89174805 19.44641602 -15.66870117 20.13305664 C-16.92127669 21.23131074 -18.17770438 22.32518932 -19.43823242 23.41430664 C-21.72019782 25.40758967 -23.95583066 27.44845566 -26.19604492 29.48852539 C-31.44190797 34.22103181 -36.88882846 38.6748965 -42.38354492 43.11352539 C-45.23829534 45.44300173 -48.08978938 47.77634135 -50.93823242 50.11352539 C-52.37443915 51.28818648 -53.81518462 52.45740432 -55.26635742 53.61352539 C-57.5279011 55.43185197 -59.42800648 57.17103028 -61.20776367 59.47290039 C-63.51151037 62.26882996 -65.92645045 64.36054267 -68.75854492 66.61352539 C-69.72147461 67.38567383 -70.6844043 68.15782227 -71.67651367 68.95336914 C-72.56983398 69.6662207 -73.4631543 70.37907227 -74.38354492 71.11352539 C-76.39220379 72.7701907 -78.38774993 74.44137283 -80.38354492 76.11352539 C-73.45141061 75.65426116 -67.19717204 74.41062676 -60.57104492 72.36352539 C-53.44489498 70.24034275 -46.32052206 68.32890618 -39.07104492 66.67602539 C-30.24572079 64.64930858 -21.57495939 62.21773343 -12.90380859 59.61181641 C-2.31243399 56.43868834 8.30923384 53.90055104 19.17114258 51.85961914 C22.61031144 51.18409948 22.61031144 51.18409948 25.81176758 50.02368164 C28.61645508 49.11352539 28.61645508 49.11352539 32.61645508 49.11352539 C32.3094776 52.271008 31.92856172 53.78606924 29.71020508 56.11352539 C28.85426758 56.77352539 27.99833008 57.43352539 27.11645508 58.11352539 C26.1290332 58.88438477 25.14161133 59.65524414 24.12426758 60.44946289 C22.95548122 61.33812128 21.7861706 62.22609039 20.61645508 63.11352539 C19.21749224 64.18836281 17.81908288 65.26392089 16.42114258 66.34008789 C12.77637704 69.13970799 9.12165074 71.92599359 5.46362305 74.70825195 C0.65696739 78.36502038 -4.10889733 82.05877153 -8.77416992 85.89477539 C-22.78906638 97.40835368 -37.21424175 108.37028318 -52.14526367 118.67211914 C-54.81301973 120.59833946 -57.23151934 122.7324778 -59.67260742 124.93774414 C-64.271228 129.07973671 -69.0980134 132.80993114 -74.07104492 136.48852539 C-74.94462646 137.13990479 -75.81820801 137.79128418 -76.71826172 138.46240234 C-81.66627868 142.14034495 -86.65530482 145.75164151 -91.69604492 149.30102539 C-97.1813238 153.16414557 -102.41980939 157.28094808 -107.62988281 161.50610352 C-112.21822479 165.21620585 -116.89614506 168.7837374 -121.63354492 172.30102539 C-128.03788403 177.06324584 -134.23522828 182.02408551 -140.38354492 187.11352539 C-149.00784379 194.20071836 -157.78981389 200.99216669 -166.89697266 207.45043945 C-170.21578122 209.80588403 -173.49803168 212.15682648 -176.62963867 214.75805664 C-189.98505538 225.68521576 -208.5177067 229.1349683 -225.57104492 227.98852539 C-227.18209781 227.7376694 -228.78626187 227.44079745 -230.38354492 227.11352539 C-231.5565918 226.89954102 -232.72963867 226.68555664 -233.93823242 226.46508789 C-253.36864126 222.5278925 -268.89728951 212.26784027 -280.38354492 196.11352539 C-280.9069043 195.4290332 -281.43026367 194.74454102 -281.96948242 194.03930664 C-293.11893151 178.73003772 -294.86185155 158.3653902 -292.69604492 140.05102539 C-291.61740218 133.45692278 -289.83743527 127.32092746 -287.38354492 121.11352539 C-287.02389648 120.17766602 -286.66424805 119.24180664 -286.29370117 118.27758789 C-283.36986606 111.24857015 -279.36566551 105.82586402 -274.38354492 100.11352539 C-273.71967773 99.31688477 -273.05581055 98.52024414 -272.37182617 97.69946289 C-268.23152506 92.83521915 -263.90245034 88.41709553 -258.38354492 85.11352539 C-257.72354492 85.11352539 -257.06354492 85.11352539 -256.38354492 85.11352539 C-256.38354492 84.45352539 -256.38354492 83.79352539 -256.38354492 83.11352539 C-246.88624719 77.52388146 -237.30630936 74.4901825 -226.69262695 71.66992188 C-220.76628762 70.08622752 -215.01685584 68.39124237 -209.32104492 66.11352539 C-199.81455793 62.33221945 -189.96150027 59.71121967 -180.13354492 56.90551758 C-163.78040311 52.19585919 -147.69095221 46.58342318 -131.56640625 41.15577698 C-128.89123655 40.2560067 -126.21523862 39.35871551 -123.53912354 38.46176147 C-121.62498531 37.81913461 -119.71201076 37.17304486 -117.79907227 36.52685547 C-112.43593799 34.72938501 -107.09653223 32.99661146 -101.62182617 31.57055664 C-97.22651944 30.41535668 -93.14759505 28.85409993 -88.95581055 27.11303711 C-84.28497796 25.29807995 -79.45599828 24.02209573 -74.63354492 22.67602539 C-66.85772148 20.46112615 -59.2522714 18.08665956 -51.67260742 15.27368164 C-47.42740923 13.77626613 -43.1138436 12.56797609 -38.78149414 11.35498047 C-33.78569581 9.91625723 -28.88654417 8.25630257 -23.99291992 6.50415039 C-23.0183358 6.15757637 -23.0183358 6.15757637 -22.02406311 5.80400085 C-18.73698434 4.6342141 -15.45679916 3.44912809 -12.18408203 2.23974609 C-10.37049194 1.59138794 -10.37049194 1.59138794 -8.52026367 0.92993164 C-7.43447021 0.53233643 -6.34867676 0.13474121 -5.22998047 -0.27490234 C-2.38354492 -0.88647461 -2.38354492 -0.88647461 0 0 Z " fill="#C51C1E" transform="translate(348.383544921875,581.886474609375)"/>
<path d="M0 0 C1.65 0.33 3.3 0.66 5 1 C7.55340494 15.0525051 9.59031914 29.07231671 10.96020508 43.29199219 C11.54449014 49.24848993 12.32800397 55.06964861 13.45556641 60.94604492 C14.65553544 67.67717165 15.47468334 74.47337808 16.375 81.25 C16.59397423 82.88120943 16.81313376 84.51239399 17.0324707 86.14355469 C18.09817228 94.09216249 19.13966972 102.0434698 20.14453125 110 C20.23391968 110.70493591 20.32330811 111.40987183 20.41540527 112.13616943 C20.83465068 115.44461293 21.24931598 118.75342312 21.65576172 122.06347656 C22.27359931 126.97800229 22.88956327 131.8191204 24.0546875 136.63671875 C25.30625253 141.89317103 25.57895614 147.18391212 25.9375 152.5625 C26.54580336 160.67423149 27.52064203 168.40177671 29.15625 176.3671875 C30.35945891 182.59606381 31.08289599 188.89591979 31.875 195.1875 C32.04206016 196.51277838 32.2091339 197.83805505 32.3762207 199.16333008 C32.6377724 201.23907331 32.89924385 203.31482615 33.16023254 205.39064026 C34.24818913 214.01656866 35.40118026 222.63368635 36.5625 231.25 C36.72191574 232.4368338 36.72191574 232.4368338 36.884552 233.64764404 C38.17826653 243.2625175 39.49051789 252.87086744 41.18774414 262.42480469 C42.54669027 270.36448995 42.05125434 277.18136493 40.25 284.9375 C40.06663086 285.73309326 39.88326172 286.52868652 39.69433594 287.34838867 C36.52208894 300.59918539 29.5556352 313.21684968 20 323 C19.34 323 18.68 323 18 323 C18 323.66 18 324.32 18 325 C16.35 325.66 14.7 326.32 13 327 C13 327.66 13 328.32 13 329 C8.0130366 333.58914296 1.61917281 336.1931119 -4.5625 338.75 C-5.62392212 339.19025513 -5.62392212 339.19025513 -6.70678711 339.6394043 C-14.06104494 342.58502244 -20.89187213 344.37649492 -28.875 344.3125 C-29.59606934 344.30903564 -30.31713867 344.30557129 -31.06005859 344.30200195 C-36.65388961 344.19301558 -42.10536867 343.5833654 -47.625 342.6875 C-48.35831543 342.56995361 -49.09163086 342.45240723 -49.84716797 342.33129883 C-56.94219413 341.0582289 -63.03273032 338.05086669 -69.4375 334.8125 C-70.48808594 334.28269531 -71.53867187 333.75289062 -72.62109375 333.20703125 C-73.40613281 332.80871094 -74.19117188 332.41039062 -75 332 C-75 331.34 -75 330.68 -75 330 C-76.3303125 329.62875 -76.3303125 329.62875 -77.6875 329.25 C-81.13156256 327.95035375 -83.33024803 326.51270773 -86 324 C-86 323.34 -86 322.68 -86 322 C-86.99 321.67 -87.98 321.34 -89 321 C-89 320.34 -89 319.68 -89 319 C-89.66 319 -90.32 319 -91 319 C-95 314.52941176 -95 314.52941176 -95 312 C-95.66 312 -96.32 312 -97 312 C-105.71393626 298.24348134 -112.15788102 283.557772 -112 267 C-112.01546875 265.23849609 -112.01546875 265.23849609 -112.03125 263.44140625 C-111.62148377 246.21415096 -107.27549237 228.98094443 -102.64746094 212.453125 C-101.72732511 208.96687885 -101.13637235 205.4983601 -100.5625 201.9375 C-99.17021925 193.63337285 -97.38826793 185.44612139 -95.51171875 177.23974609 C-91.13092729 158.06542317 -87.08183785 138.82803114 -83.4375 119.5 C-81.89533911 111.33386824 -80.13215485 103.32401309 -78.02734375 95.28515625 C-76.35817847 88.60360975 -75.19675753 81.80776566 -73.92358398 75.04248047 C-72.02988916 65.02482763 -69.88600867 55.07451812 -67.68554688 45.12060547 C-66.37334628 39.14747584 -65.09410012 33.16725575 -63.8125 27.1875 C-63.56250244 26.02492676 -63.31250488 24.86235352 -63.05493164 23.66455078 C-61.65160541 17.11948655 -60.29022409 10.56832899 -59 4 C-57.68 3.67 -56.36 3.34 -55 3 C-48.95396029 15.22071856 -47.44993376 29.50788256 -45.52514648 42.8605957 C-45.03474462 45.79229144 -44.38314495 48.59631312 -43.625 51.46875 C-41.85141832 58.43213758 -40.44382995 65.44985904 -39.0625 72.5 C-38.80217525 73.81954897 -38.5415929 75.13904714 -38.28076172 76.45849609 C-37.76289037 79.07859243 -37.24610809 81.69889451 -36.72998047 84.31933594 C-36.07245572 87.63466809 -35.40202582 90.94689923 -34.72265625 94.2578125 C-34.53501709 95.17626953 -34.34737793 96.09472656 -34.15405273 97.04101562 C-33.81136147 98.71477857 -33.46599147 100.38799621 -33.11743164 102.06054688 C-32.42294733 105.47425327 -32 108.49832699 -32 112 C-31.34 112 -30.68 112 -30 112 C-29.89042969 111.443125 -29.78085937 110.88625 -29.66796875 110.3125 C-28.87486737 106.49529661 -28.00496727 103.01252617 -26.5625 99.375 C-24.598821 94.41671053 -23.81068671 89.24080509 -22.81640625 84.01953125 C-21.24415778 76.01801396 -19.120782 68.07363107 -16.4375 60.375 C-15.23936672 56.93437127 -14.40474452 53.49644568 -13.625 49.9375 C-12.55183626 45.10548295 -11.22602419 40.45404999 -9.6875 35.75 C-6.95049097 27.37280493 -4.95857178 18.83335987 -2.9675293 10.25292969 C-2.72558838 9.21297852 -2.48364746 8.17302734 -2.234375 7.1015625 C-2.02006836 6.16650879 -1.80576172 5.23145508 -1.58496094 4.26806641 C-1 2 -1 2 0 0 Z " fill="#C51C1E" transform="translate(546,698)"/>
<path d="M0 0 C0.69270996 0.33652588 1.38541992 0.67305176 2.09912109 1.01977539 C6.93709818 3.49879454 6.93709818 3.49879454 8.0625 6.875 C9.7260479 7.54941131 11.39316942 8.2150321 13.0625 8.875 C15.375 10.875 15.375 10.875 17.0625 12.875 C17.0625 13.535 17.0625 14.195 17.0625 14.875 C18.0525 15.205 19.0425 15.535 20.0625 15.875 C21.63829417 17.80490522 23.0478815 19.69295677 24.4375 21.75 C24.83598145 22.33499268 25.23446289 22.91998535 25.64501953 23.52270508 C38.0057992 42.09911917 41.95366688 65.20141557 37.765625 87.0390625 C36.59137875 91.77518906 35.17877868 96.46884166 33.0625 100.875 C32.0725 101.37 32.0725 101.37 31.0625 101.875 C30.40477572 104.90434491 30.40477572 104.90434491 30.0625 107.875 C29.4025 107.875 28.7425 107.875 28.0625 107.875 C27.69125 108.926875 27.69125 108.926875 27.3125 110 C24.74906578 115.8958987 20.69680348 121.39958692 16.0625 125.875 C15.4025 125.875 14.7425 125.875 14.0625 125.875 C13.4025 127.525 12.7425 129.175 12.0625 130.875 C11.4025 130.875 10.7425 130.875 10.0625 130.875 C9.77375 131.473125 9.485 132.07125 9.1875 132.6875 C8.0625 134.875 8.0625 134.875 6.0625 137.875 C5.4025 137.875 4.7425 137.875 4.0625 137.875 C3.8253125 138.42027344 3.588125 138.96554688 3.34375 139.52734375 C1.73332426 142.47815433 -0.27902106 144.86204217 -2.4375 147.4375 C-4.74989639 150.20411711 -6.93667699 152.87376548 -8.9375 155.875 C-9.5975 155.875 -10.2575 155.875 -10.9375 155.875 C-10.9375 156.535 -10.9375 157.195 -10.9375 157.875 C-11.5975 157.875 -12.2575 157.875 -12.9375 157.875 C-13.5975 159.525 -14.2575 161.175 -14.9375 162.875 C-15.5975 162.875 -16.2575 162.875 -16.9375 162.875 C-17.30875 164.050625 -17.30875 164.050625 -17.6875 165.25 C-19.14674503 168.31441457 -19.98764956 168.49225761 -22.9375 169.875 C-24.16277948 171.82521083 -24.16277948 171.82521083 -24.9375 173.875 C-25.2675 174.535 -25.5975 175.195 -25.9375 175.875 C-26.5975 175.875 -27.2575 175.875 -27.9375 175.875 C-28.22625 176.473125 -28.515 177.07125 -28.8125 177.6875 C-29.9375 179.875 -29.9375 179.875 -31.9375 182.875 C-32.5975 182.875 -33.2575 182.875 -33.9375 182.875 C-34.5975 184.525 -35.2575 186.175 -35.9375 187.875 C-36.5975 187.875 -37.2575 187.875 -37.9375 187.875 C-38.22625 188.473125 -38.515 189.07125 -38.8125 189.6875 C-39.9375 191.875 -39.9375 191.875 -41.9375 194.875 C-42.5975 194.875 -43.2575 194.875 -43.9375 194.875 C-44.1953125 195.43703125 -44.453125 195.9990625 -44.71875 196.578125 C-46.07919777 199.14204579 -47.66538962 201.32726365 -49.4375 203.625 C-50.0459375 204.42421875 -50.654375 205.2234375 -51.28125 206.046875 C-51.8278125 206.65015625 -52.374375 207.2534375 -52.9375 207.875 C-53.5975 207.875 -54.2575 207.875 -54.9375 207.875 C-55.5975 209.525 -56.2575 211.175 -56.9375 212.875 C-57.5975 212.875 -58.2575 212.875 -58.9375 212.875 C-58.9375 213.535 -58.9375 214.195 -58.9375 214.875 C-59.5975 214.875 -60.2575 214.875 -60.9375 214.875 C-61.5975 216.525 -62.2575 218.175 -62.9375 219.875 C-63.5975 219.875 -64.2575 219.875 -64.9375 219.875 C-65.185 220.6175 -65.4325 221.36 -65.6875 222.125 C-67.0358193 225.09130245 -68.57933849 226.66897794 -70.9375 228.875 C-71.2675 229.535 -71.5975 230.195 -71.9375 230.875 C-72.5975 230.875 -73.2575 230.875 -73.9375 230.875 C-74.22625 231.473125 -74.515 232.07125 -74.8125 232.6875 C-75.9375 234.875 -75.9375 234.875 -77.9375 237.875 C-78.5975 237.875 -79.2575 237.875 -79.9375 237.875 C-80.22625 238.473125 -80.515 239.07125 -80.8125 239.6875 C-81.9375 241.875 -81.9375 241.875 -83.9375 244.875 C-84.5975 244.875 -85.2575 244.875 -85.9375 244.875 C-86.2675 246.195 -86.5975 247.515 -86.9375 248.875 C-87.5975 248.875 -88.2575 248.875 -88.9375 248.875 C-89.2675 249.865 -89.5975 250.855 -89.9375 251.875 C-90.5975 251.875 -91.2575 251.875 -91.9375 251.875 C-92.2675 253.195 -92.5975 254.515 -92.9375 255.875 C-93.5975 255.875 -94.2575 255.875 -94.9375 255.875 C-95.22625 256.473125 -95.515 257.07125 -95.8125 257.6875 C-96.9375 259.875 -96.9375 259.875 -98.9375 262.875 C-99.5975 262.875 -100.2575 262.875 -100.9375 262.875 C-101.22625 263.473125 -101.515 264.07125 -101.8125 264.6875 C-102.9375 266.875 -102.9375 266.875 -104.9375 269.875 C-105.5975 269.875 -106.2575 269.875 -106.9375 269.875 C-107.30875 270.7103125 -107.30875 270.7103125 -107.6875 271.5625 C-109.15335054 274.2743235 -110.99205699 276.4902634 -112.9375 278.875 C-113.2675 279.535 -113.5975 280.195 -113.9375 280.875 C-114.5975 280.875 -115.2575 280.875 -115.9375 280.875 C-115.9375 281.535 -115.9375 282.195 -115.9375 282.875 C-116.91600195 283.89604551 -117.91730427 284.8956121 -118.9375 285.875 C-119.2675 286.535 -119.5975 287.195 -119.9375 287.875 C-120.5975 287.875 -121.2575 287.875 -121.9375 287.875 C-122.22625 288.473125 -122.515 289.07125 -122.8125 289.6875 C-123.9375 291.875 -123.9375 291.875 -125.9375 294.875 C-126.5975 294.875 -127.2575 294.875 -127.9375 294.875 C-128.22625 295.473125 -128.515 296.07125 -128.8125 296.6875 C-129.9375 298.875 -129.9375 298.875 -131.9375 301.875 C-132.5975 301.875 -133.2575 301.875 -133.9375 301.875 C-134.2675 303.195 -134.5975 304.515 -134.9375 305.875 C-135.5975 305.875 -136.2575 305.875 -136.9375 305.875 C-136.9375 306.535 -136.9375 307.195 -136.9375 307.875 C-138.4375 309.5 -138.4375 309.5 -139.9375 310.875 C-140.9275 310.545 -141.9175 310.215 -142.9375 309.875 C-143.26436318 305.51682423 -142.49543943 302.48173823 -140.859375 298.46875 C-139.64012063 295.0383055 -138.79313996 291.53411176 -137.9375 288 C-136.09742903 280.4533037 -133.96094717 273.0716466 -131.59375 265.67578125 C-128.79157921 256.90032248 -126.12036002 248.11554442 -123.69189453 239.22900391 C-121.913296 232.73231805 -119.96080001 226.2997325 -117.9375 219.875 C-117.48399009 218.42329727 -117.03088924 216.97146671 -116.578125 215.51953125 C-115.36717147 211.63720745 -114.15307686 207.75587858 -112.9375 203.875 C-113.2675 203.545 -113.5975 203.215 -113.9375 202.875 C-114.5975 202.875 -115.2575 202.875 -115.9375 202.875 C-115.9375 203.535 -115.9375 204.195 -115.9375 204.875 C-117.55502497 206.58940034 -119.23269391 208.24736621 -120.9375 209.875 C-122.79308555 211.70689722 -124.64722356 213.54026171 -126.5 215.375 C-127.89412109 216.75171875 -127.89412109 216.75171875 -129.31640625 218.15625 C-131.9677044 220.81092083 -131.9677044 220.81092083 -134.15234375 223.71875 C-134.74144531 224.4303125 -135.33054687 225.141875 -135.9375 225.875 C-136.5975 225.875 -137.2575 225.875 -137.9375 225.875 C-138.205625 226.514375 -138.47375 227.15375 -138.75 227.8125 C-139.9375 229.875 -139.9375 229.875 -142.9375 230.875 C-143.67073796 232.89008358 -143.67073796 232.89008358 -143.9375 234.875 C-144.5975 234.875 -145.2575 234.875 -145.9375 234.875 C-145.9375 235.535 -145.9375 236.195 -145.9375 236.875 C-147.59965268 238.21395632 -149.26713607 239.54630142 -150.9375 240.875 C-151.5975 241.7 -152.2575 242.525 -152.9375 243.375 C-155.03217546 245.99334432 -157.30840459 247.81435765 -159.9375 249.875 C-160.2675 250.535 -160.5975 251.195 -160.9375 251.875 C-161.5975 251.875 -162.2575 251.875 -162.9375 251.875 C-163.185 252.431875 -163.4325 252.98875 -163.6875 253.5625 C-165.16674818 256.29910913 -166.87217439 258.55150869 -168.9375 260.875 C-169.5975 260.875 -170.2575 260.875 -170.9375 260.875 C-171.2675 261.865 -171.5975 262.855 -171.9375 263.875 C-172.5975 263.875 -173.2575 263.875 -173.9375 263.875 C-173.9375 264.535 -173.9375 265.195 -173.9375 265.875 C-174.5975 265.875 -175.2575 265.875 -175.9375 265.875 C-176.20691406 266.46152344 -176.47632813 267.04804688 -176.75390625 267.65234375 C-177.93595187 269.87209279 -179.21850384 271.55339368 -180.875 273.4375 C-181.37902344 274.01628906 -181.88304687 274.59507812 -182.40234375 275.19140625 C-185.48881579 278.57631579 -185.48881579 278.57631579 -186.9375 279.875 C-187.5975 279.875 -188.2575 279.875 -188.9375 279.875 C-188.9375 280.535 -188.9375 281.195 -188.9375 281.875 C-189.5975 281.875 -190.2575 281.875 -190.9375 281.875 C-191.9275 283.855 -191.9275 283.855 -192.9375 285.875 C-193.9275 285.875 -194.9175 285.875 -195.9375 285.875 C-197.10527604 282.37167187 -196.79916507 281.93236237 -195.375 278.6875 C-193.53583912 274.32264215 -191.78663378 269.9352375 -190.125 265.5 C-189.87435791 264.83250732 -189.62371582 264.16501465 -189.36547852 263.47729492 C-187.26690902 257.84601355 -185.28275691 252.17723532 -183.3125 246.5 C-180.63805184 238.79709631 -177.84971224 231.1935917 -174.546875 223.734375 C-172.60892996 219.21833558 -171.03360848 214.58294236 -169.4375 209.9375 C-167.34853537 203.88497583 -165.21815729 197.85809255 -162.9375 191.875 C-158.80527475 181.06929728 -158.80527475 181.06929728 -155.0625 170.125 C-152.98503675 163.74422003 -150.46323371 157.55324701 -147.93017578 151.34277344 C-145.44705545 145.23818149 -143.16168661 139.07818051 -140.9375 132.875 C-140.30678975 131.1351264 -139.67528872 129.39553923 -139.04296875 127.65625 C-138.73085449 126.79652588 -138.41874023 125.93680176 -138.09716797 125.05102539 C-136.72123934 121.26359353 -135.34277673 117.4770876 -133.96337891 113.69091797 C-133.30371643 111.88022139 -132.64449983 110.06936227 -131.98583984 108.25830078 C-129.05630596 100.21032044 -126.1018711 92.18413268 -122.875 84.25 C-120.41255263 78.17596316 -118.19562655 72.04261591 -116.04443359 65.85229492 C-114.77739051 62.21713751 -113.47226734 58.62100149 -112 55.0625 C-109.54919471 49.10611247 -107.50070112 43.00266444 -105.39868164 36.91674805 C-103.99667253 32.86402267 -102.58710847 28.83569359 -100.9375 24.875 C-100.2775 24.875 -99.6175 24.875 -98.9375 24.875 C-98.64875 24.2975 -98.36 23.72 -98.0625 23.125 C-97.505625 22.01125 -97.505625 22.01125 -96.9375 20.875 C-96.4734375 19.8540625 -96.4734375 19.8540625 -96 18.8125 C-94.868899 16.74990406 -93.74195083 15.37870902 -91.9375 13.875 C-91.2775 13.875 -90.6175 13.875 -89.9375 13.875 C-89.4425 12.39 -89.4425 12.39 -88.9375 10.875 C-87.9475 10.875 -86.9575 10.875 -85.9375 10.875 C-85.73125 10.2975 -85.525 9.72 -85.3125 9.125 C-83.43368222 6.0505709 -80.96416072 4.67008284 -77.9375 2.875 C-76.54337891 2.01455078 -76.54337891 2.01455078 -75.12109375 1.13671875 C-69.77602062 -2.09440806 -65.04791348 -4.80706768 -58.9375 -6.125 C-57.90625 -6.455 -56.875 -6.785 -55.8125 -7.125 C-35.88214243 -12.67354053 -18.13454066 -8.86727202 0 0 Z " fill="#C51C1E" transform="translate(785.9375,72.125)"/>
<path d="M0 0 C3.15748261 0.30697748 4.67254385 0.68789336 7 2.90625 C7.66 3.7621875 8.32 4.618125 9 5.5 C10.14855469 6.97146484 10.14855469 6.97146484 11.3203125 8.47265625 C12.21397245 9.64811012 13.10716124 10.82392226 14 12 C15.12164878 13.45760642 16.24408854 14.91460441 17.3671875 16.37109375 C20.59534617 20.56770002 23.80704918 24.77654083 27 29 C27.55316895 29.69552979 28.10633789 30.39105957 28.67626953 31.10766602 C30 33 30 33 30 35 C31.485 35.495 31.485 35.495 33 36 C34.61020742 37.90565832 36.09382685 39.80281211 37.5625 41.8125 C40.92069268 46.30389724 44.35807831 50.66845435 48 54.9375 C52.95985044 60.83023767 57.3999585 67.00885741 61.81396484 73.31152344 C63.66833832 75.95146724 65.54964776 78.57142688 67.4375 81.1875 C68.36369141 82.47720703 68.36369141 82.47720703 69.30859375 83.79296875 C70.91145936 85.99477419 70.91145936 85.99477419 72.72265625 87.67578125 C74 89 74 89 74 91 C75.485 91.495 75.485 91.495 77 92 C78.31176758 93.38842773 78.31176758 93.38842773 79.64453125 95.18359375 C80.14919922 95.85455078 80.65386719 96.52550781 81.17382812 97.21679688 C81.71458984 97.94962891 82.25535156 98.68246094 82.8125 99.4375 C83.98485502 100.99931533 85.15806 102.56049293 86.33203125 104.12109375 C86.93740723 104.9291748 87.5427832 105.73725586 88.16650391 106.56982422 C91.06702077 110.41426428 94.03361836 114.20630257 97 118 C101.59578948 123.89166187 106.15774144 129.80743153 110.6875 135.75 C115.09041004 141.52513377 119.53694497 147.26214299 124.03881836 152.96044922 C126.71216602 156.34757139 129.35085468 159.75824188 131.96606445 163.19042969 C135.03978048 167.22325733 138.11499831 171.21955418 141.5 175 C148.85000526 183.21268193 155.26296654 192.31998596 161.83203125 201.15625 C163.92276936 203.89869566 166.10274152 206.54069133 168.3125 209.1875 C178.70850844 222.19795017 181.92125183 240.64273663 181 257 C178.6809343 275.97380915 170.09921067 294.87039035 155.1875 307.0625 C153.46814936 308.38783278 151.73923737 309.70087453 150 311 C149.278125 311.54914063 148.55625 312.09828125 147.8125 312.6640625 C136.74210079 320.60056193 123.52646872 324.28779721 110 324 C109.34 324.33 108.68 324.66 108 325 C90.67689085 325.10680092 73.49934511 320.79900796 59 311 C59 310.34 59 309.68 59 309 C58.43925781 308.75378906 57.87851562 308.50757813 57.30078125 308.25390625 C43.70788066 300.84589082 32.62589133 284.13770136 28.26513672 269.54003906 C27.25396685 265.82136888 26.29373683 262.09063252 25.33789062 258.35742188 C23.92539306 252.98694961 22.23001511 247.93944424 20.09985352 242.81518555 C17.73474711 236.76145814 15.88980117 230.50950531 13.9375 224.3125 C13.07567632 221.57811912 12.20909555 218.84530856 11.33984375 216.11328125 C10.77317993 214.31564331 10.77317993 214.31564331 10.19506836 212.48168945 C8.96570218 208.90007737 7.49786467 205.47629212 6 202 C5.54356598 200.58081113 5.11945871 199.15030104 4.74609375 197.70703125 C4.53645996 196.92577881 4.32682617 196.14452637 4.11083984 195.33959961 C3.8886377 194.50565674 3.66643555 193.67171387 3.4375 192.8125 C0.32733767 181.51646393 -3.61907049 170.55971914 -7.6328125 159.55859375 C-13.68364026 142.92127909 -13.68364026 142.92127909 -15 136.3125 C-15.60123014 133.38694316 -16.41014347 130.94482927 -17.71484375 128.26171875 C-20.91367941 121.22789072 -23.16083466 113.83344029 -25.5625 106.5 C-26.04840283 105.02720337 -26.53472825 103.55454609 -27.02148438 102.08203125 C-27.94835695 99.27654694 -28.87228117 96.47012135 -29.79370117 93.6628418 C-30.75424659 90.74621301 -31.72766223 87.83477901 -32.7109375 84.92578125 C-33.95253593 81.21202043 -35.01456061 77.46087872 -36.0625 73.6875 C-38.77642401 64.09448574 -42.27091701 54.76912919 -45.78540039 45.44604492 C-46.21457764 44.28177979 -46.64375488 43.11751465 -47.0859375 41.91796875 C-47.4782959 40.87406982 -47.8706543 39.8301709 -48.27490234 38.75463867 C-49.00991801 35.9623216 -49.01073851 34.65906266 -48 32 C-44.56169433 32.57421996 -43.0416429 33.63386281 -40.72265625 36.203125 C-40.12646484 36.85410156 -39.53027344 37.50507812 -38.91601562 38.17578125 C-38.30435547 38.86027344 -37.69269531 39.54476562 -37.0625 40.25 C-35.8458257 41.58924489 -34.62839172 42.92780007 -33.41015625 44.265625 C-32.82669434 44.90967285 -32.24323242 45.5537207 -31.64208984 46.21728516 C-29.49571268 48.54747339 -27.24922259 50.76942768 -25 53 C-19.21623945 59.14763952 -13.72456075 65.48459723 -8.4140625 72.04296875 C-1.62032919 80.3647424 5.28624447 88.48789479 12.984375 95.9921875 C15.49859882 98.49666627 17.82004614 101.13223894 20.1262207 103.82763672 C22.13385591 106.15518566 24.17052401 108.45462345 26.21484375 110.75 C27.28206665 111.94882812 27.28206665 111.94882812 28.37084961 113.171875 C28.90846924 113.77515625 29.44608887 114.3784375 30 115 C29.06853268 111.18600061 28.12871908 107.37410352 27.1875 103.5625 C26.92646484 102.49322266 26.66542969 101.42394531 26.39648438 100.32226562 C25.03821959 94.83890038 23.54011661 89.49010397 21.69458008 84.15258789 C20.45488812 80.31063218 19.62992036 76.37428655 18.75 72.4375 C16.66116354 63.36211996 14.17943078 54.44070239 11.49902344 45.52319336 C8.75330669 36.35688121 6.36819218 27.13544165 4.5 17.75 C3.41835036 12.57067236 1.94427708 7.90698502 0 3 C0 2.01 0 1.02 0 0 Z " fill="#C51C1E" transform="translate(628,660)"/>
<path d="M0 0 C0 0.66 0 1.32 0 2 C0.56203125 2.24234375 1.1240625 2.4846875 1.703125 2.734375 C11.55594684 8.16348091 17.14043375 18.31469278 22 28 C22.42152344 28.80824219 22.84304688 29.61648438 23.27734375 30.44921875 C31.49720564 48.22273143 30.03402846 68.99783363 23.74560547 87.00927734 C21.9293566 91.85855478 19.89678435 96.69439703 17 101 C15.515 101.495 15.515 101.495 14 102 C12.83046584 104.42383077 12.83046584 104.42383077 12 107 C11.67 107.66 11.34 108.32 11 109 C10.34 109 9.68 109 9 109 C8.64421875 109.85851562 8.64421875 109.85851562 8.28125 110.734375 C6.72406762 113.4879292 4.87507203 115.16795634 2.5 117.25 C1.7059375 117.95640625 0.911875 118.6628125 0.09375 119.390625 C-2 121 -2 121 -4 121 C-4 121.66 -4 122.32 -4 123 C-26.63566195 136.59883157 -48.88823913 141.13928113 -74.75 134.8125 C-76.54596639 134.36093705 -78.341526 133.90775381 -80.13671875 133.453125 C-86.57830306 131.8281415 -93.06380494 130.43824451 -99.5625 129.0625 C-100.74215332 128.81153564 -101.92180664 128.56057129 -103.13720703 128.30200195 C-106.7577209 127.53268562 -110.37879046 126.76603448 -114 126 C-128.67726713 122.89236978 -143.33218838 119.72403728 -157.94335938 116.31811523 C-169.87968657 113.54462179 -181.85332048 110.94439882 -193.82794189 108.34268188 C-198.60779977 107.30398609 -203.38631771 106.25930781 -208.1640625 105.2109375 C-220.97765395 102.4001266 -233.7948738 99.60968003 -246.625 96.875 C-258.44115105 94.35286805 -270.22684495 91.71506584 -282 89 C-284.3333229 88.46349628 -286.66665678 87.92704032 -289 87.390625 C-293.5653938 86.33979568 -298.13069225 85.28855982 -302.6953125 84.234375 C-303.62359863 84.02006836 -304.55188477 83.80576172 -305.50830078 83.58496094 C-307.67750964 83.07570908 -309.84014756 82.54739017 -312 82 C-311.67 80.68 -311.34 79.36 -311 78 C-291.73118556 73.25568393 -272.24089244 69.60449919 -252.75463867 65.87963867 C-244.07513821 64.21735672 -235.40983298 62.48887704 -226.74633789 60.74536133 C-218.51034644 59.09179552 -210.26267359 57.51461826 -202 56 C-216.28086144 51.27042438 -230.57337205 46.89839188 -245.1640625 43.2265625 C-250.03661159 41.99958128 -254.86273661 40.67171135 -259.6574707 39.16479492 C-270.12257699 35.88328656 -280.70183759 33.08226483 -291.30249023 30.27905273 C-293.72994184 29.63611903 -296.1560326 28.98823491 -298.58203125 28.33984375 C-299.30928909 28.14913803 -300.03654694 27.95843231 -300.7858429 27.76194763 C-305.65409833 26.45759265 -310.30331384 24.83028496 -315 23 C-314.32177734 21.0637207 -314.32177734 21.0637207 -313 19 C-310.75244141 18.28979492 -310.75244141 18.28979492 -307.8515625 17.98046875 C-306.72975586 17.84922607 -305.60794922 17.7179834 -304.45214844 17.58276367 C-303.18918945 17.45232666 -301.92623047 17.32188965 -300.625 17.1875 C-298.52653157 16.94834988 -296.42900035 16.70185034 -294.3314209 16.45503235 C-292.78160689 16.27291819 -291.23154611 16.09289462 -289.68127441 15.91471863 C-283.25751859 15.17062219 -276.85121869 14.3213331 -270.4453125 13.4375 C-269.42910324 13.29741516 -268.41289398 13.15733032 -267.3658905 13.01300049 C-265.24813743 12.72086544 -263.13039575 12.42864788 -261.01266479 12.13635254 C-240.72111668 9.34479611 -220.40671468 6.81297525 -200.0625 4.4375 C-181.35091011 2.25148578 -162.66479495 -0.04656688 -143.99707031 -2.57910156 C-126.40753082 -4.96342845 -108.8046925 -7.24066042 -91.19940567 -9.50522614 C-88.83081537 -9.8101422 -86.46231439 -10.11574276 -84.09384155 -10.42156982 C-80.33850785 -10.90642495 -76.58298652 -11.38979958 -72.82731247 -11.87201118 C-71.43533951 -12.05092168 -70.04342314 -12.23027318 -68.65156937 -12.41010857 C-41.98012487 -15.85414438 -23.36615859 -13.87155236 0 0 Z " fill="#C61C1E" transform="translate(1015,469)"/>
<path d="M0 0 C15.111818 12.91009617 23.82980864 30.51543034 26.375 50.0625 C26.47948191 51.43605487 26.5637781 52.81133819 26.625 54.1875 C26.66496094 54.86425781 26.70492188 55.54101562 26.74609375 56.23828125 C27.43026564 78.25251781 18.94286105 99.11258456 3.98925781 115.03833008 C-9.372195 128.50783318 -26.09870239 134.27834866 -43.83984375 139.59375 C-54.98030823 142.93785171 -66.0483888 146.51396165 -77.125 150.0625 C-78.77001999 150.5889209 -78.77001999 150.5889209 -80.44827271 151.12597656 C-94.33122997 155.57069004 -108.18526485 160.08635077 -121.99902344 164.74169922 C-131.42447644 167.90532888 -140.90310511 170.87579457 -150.40045166 173.81414795 C-160.10177779 176.81788251 -169.75009741 179.94542755 -179.375 183.1875 C-190.33118127 186.87800317 -201.32746244 190.39428936 -212.37335205 193.80444336 C-219.84693791 196.1131662 -227.2985636 198.46960548 -234.7109375 200.96875 C-235.39029358 201.19755859 -236.06964966 201.42636719 -236.76959229 201.66210938 C-240.00226292 202.7531685 -243.2313016 203.85334365 -246.45703125 204.96484375 C-253.04679192 207.20550931 -259.50047617 209.0636853 -266.375 210.1875 C-265.7985996 206.86532951 -264.85264203 205.32024739 -262.3828125 203.05078125 C-261.76591553 202.47835693 -261.14901855 201.90593262 -260.51342773 201.31616211 C-259.84899658 200.71682861 -259.18456543 200.11749512 -258.5 199.5 C-257.8181665 198.87424072 -257.13633301 198.24848145 -256.43383789 197.60375977 C-251.82262081 193.40421013 -247.06911611 189.42692481 -242.1953125 185.53515625 C-237.48092358 181.6108519 -233.05594284 177.37723138 -228.58203125 173.18359375 C-223.9110668 168.80633286 -219.07752459 164.6360711 -214.203125 160.48828125 C-207.37776261 154.67261027 -200.66896202 148.76854396 -194.0859375 142.6796875 C-190.57221158 139.4494899 -186.99037554 136.30310304 -183.375 133.1875 C-183.705 132.8575 -184.035 132.5275 -184.375 132.1875 C-187.19761669 132.79724746 -189.96566118 133.47651376 -192.75585938 134.21362305 C-193.63578049 134.44113754 -194.5157016 134.66865204 -195.42228699 134.90306091 C-198.35588835 135.66298746 -201.28726392 136.43117649 -204.21875 137.19921875 C-206.26153079 137.72971883 -208.30446111 138.25964341 -210.34753418 138.78901672 C-215.75435506 140.19134855 -221.15939978 141.60040563 -226.56402588 143.01116943 C-235.15696863 145.2530615 -243.75248993 147.48504061 -252.34809875 149.71668434 C-255.33105107 150.49216912 -258.31322637 151.27058278 -261.29528809 152.04948425 C-271.18303064 154.62617707 -281.08157793 157.11607427 -291.03796387 159.41438293 C-293.49074538 159.98263787 -295.93585027 160.56419344 -298.375 161.1875 C-297.53150641 156.40240601 -294.505767 154.50620359 -290.8125 151.6875 C-290.14065674 151.16269043 -289.46881348 150.63788086 -288.77661133 150.09716797 C-283.42958643 145.94036935 -278.00957525 141.87810039 -272.57666016 137.83447266 C-265.1087693 132.27097512 -257.78259023 126.52799119 -250.44238281 120.79785156 C-245.44018414 116.90147669 -240.40499186 113.04787495 -235.375 109.1875 C-233.20789153 107.52140747 -231.04145047 105.85444801 -228.875 104.1875 C-227.79167876 103.35415095 -226.70834544 102.52081759 -225.625 101.6875 C-225.08875 101.275 -224.5525 100.8625 -224 100.4375 C-205.04166667 85.85416667 -186.08333333 71.27083333 -167.125 56.6875 C-166.58907227 56.2752417 -166.05314453 55.8629834 -165.50097656 55.43823242 C-164.41441221 54.60242624 -163.32782355 53.76665165 -162.24121094 52.9309082 C-159.58211452 50.88566364 -156.9235006 48.83980009 -154.265625 46.79296875 C-149.65264215 43.24143096 -145.0384001 39.69179718 -140.41015625 36.16015625 C-133.01589949 30.51737568 -125.64415606 24.84896131 -118.3125 19.125 C-111.95145528 14.16121861 -105.55318735 9.25358183 -99.06225586 4.46044922 C-95.98458253 2.18185739 -92.96736789 -0.1229136 -90.05078125 -2.60546875 C-64.49315807 -24.08806657 -25.35768448 -19.05739559 0 0 Z " fill="#C51C1E" transform="translate(961.375,248.8125)"/>
<path d="M0 0 C0.495 1.485 0.495 1.485 1 3 C3.42383077 4.16953416 3.42383077 4.16953416 6 5 C6.66 5.33 7.32 5.66 8 6 C8 6.66 8 7.32 8 8 C8.556875 8.226875 9.11375 8.45375 9.6875 8.6875 C12.66159588 10.37550036 14.72008865 12.46676517 17 15 C17 15.66 17 16.32 17 17 C17.66 17 18.32 17 19 17 C19.33 18.32 19.66 19.64 20 21 C20.66 21 21.32 21 22 21 C22.33 22.32 22.66 23.64 23 25 C23.66 25 24.32 25 25 25 C37.7577199 48.60178182 38.90926361 70.48819177 32.46484375 96.046875 C30.76980775 102.80860722 29.31985676 109.61863057 27.875 116.4375 C27.63370361 117.57340576 27.39240723 118.70931152 27.14379883 119.87963867 C26.66994521 122.11347371 26.19671335 124.34744074 25.72412109 126.58154297 C24.95495302 130.21265939 24.1819078 133.84292056 23.40625 137.47265625 C23.05143555 139.13373413 23.05143555 139.13373413 22.68945312 140.82836914 C21.78885021 144.97133391 20.83379532 149.10065766 19.875 153.23046875 C16.23453735 168.91371187 12.78979797 184.62429042 9.5390625 200.39306641 C7.75677435 209.01230231 5.87737841 217.60615861 3.88671875 226.1796875 C2.73074587 231.16004643 1.58049399 236.14164654 0.4375 241.125 C0.22754395 242.03121094 0.01758789 242.93742188 -0.19873047 243.87109375 C-1.25351489 248.48045997 -2.21228364 253.0840196 -3.02734375 257.7421875 C-3.76658513 261.92715207 -4.79748837 265.92089192 -6 270 C-6.6968774 273.01042597 -7.31758251 276.03541031 -7.9375 279.0625 C-8.29287714 280.76955032 -8.64834634 282.47658148 -9.00390625 284.18359375 C-9.5759914 286.94625473 -10.1460135 289.70932242 -10.71484375 292.47265625 C-13.2077848 304.37681855 -16.13110464 316.18198854 -19 328 C-20.94116211 327.19799805 -20.94116211 327.19799805 -23 326 C-23.73611801 323.52285599 -24.2016156 321.34698703 -24.5625 318.8125 C-24.80495105 317.33706855 -25.04846231 315.86181098 -25.29296875 314.38671875 C-25.41075684 313.64341309 -25.52854492 312.90010742 -25.64990234 312.13427734 C-26.14530262 309.11420118 -26.75760872 306.12227948 -27.375 303.125 C-28.77257569 296.19565876 -30.10825041 289.25524973 -31.4375 282.3125 C-33.07786532 273.74913344 -34.74764189 265.19303617 -36.47583008 256.64697266 C-37.44258907 251.84674911 -38.37697953 247.04140417 -39.2890625 242.23046875 C-39.51078125 241.06322266 -39.7325 239.89597656 -39.9609375 238.69335938 C-40.39343341 236.41003537 -40.82325744 234.12620314 -41.25 231.84179688 C-42.26853575 226.4680287 -43.37534086 221.22424796 -45 216 C-45.27972656 216.98484375 -45.55945313 217.9696875 -45.84765625 218.984375 C-46.81261955 222.36217091 -47.80333196 225.73184675 -48.80102539 229.10009766 C-51.31663768 237.59740562 -53.72150228 246.11375771 -55.96484375 254.6875 C-58.92059955 265.94859242 -58.92059955 265.94859242 -60.5625 270.625 C-61.76063328 274.06562873 -62.59525548 277.50355432 -63.375 281.0625 C-64.618228 286.6344804 -66.2019867 292.04264473 -67.94604492 297.47241211 C-70.09975947 304.21109216 -72.03032952 311.00829418 -73.94458008 317.81835938 C-75.19518348 322.25181809 -76.49345566 326.64458744 -78 331 C-78.99 330.67 -79.98 330.34 -81 330 C-84.24766817 308.45784735 -84.24766817 308.45784735 -84.69140625 299.1796875 C-84.96227394 296.38872167 -85.40332111 293.74679074 -85.9296875 290.99609375 C-87.16298608 284.42812634 -87.86993715 277.8309733 -88.5625 271.1875 C-88.81229019 268.82666246 -89.06354172 266.46597898 -89.31640625 264.10546875 C-89.42412354 263.07574951 -89.53184082 262.04603027 -89.64282227 260.98510742 C-90.00365631 257.96944241 -90.49292682 254.9941582 -91 252 C-91.23879973 250.22018301 -91.46661021 248.43885819 -91.68359375 246.65625 C-91.80541016 245.66488037 -91.92722656 244.67351074 -92.05273438 243.65209961 C-92.17970703 242.61190674 -92.30667969 241.57171387 -92.4375 240.5 C-93.3744588 232.9098416 -94.35586114 225.33280045 -95.46484375 217.765625 C-96.2021135 212.57782911 -96.88356833 207.3832132 -97.5625 202.1875 C-97.68947266 201.21997803 -97.81644531 200.25245605 -97.94726562 199.25561523 C-98.48759301 195.10202714 -99.01595845 190.94926531 -99.46875 186.78515625 C-100.13776818 180.63662579 -100.90954872 174.50045518 -101.67456055 168.36328125 C-101.93520507 166.26844465 -102.19321041 164.17329345 -102.45117188 162.078125 C-103.23247288 155.78043016 -104.05515909 149.49607274 -105.04296875 143.2265625 C-105.99093463 137.20779035 -106.71102989 131.18083204 -107.375 125.125 C-108.49199488 115.19567178 -109.71367281 105.28375829 -111 95.375 C-111.1654834 94.07046875 -111.3309668 92.7659375 -111.50146484 91.421875 C-112.27451458 85.36467822 -113.08957211 79.3254245 -114.0625 73.296875 C-116.98599484 54.57487224 -114.31520981 41.40286945 -105 25 C-104.46890625 24.03835937 -103.9378125 23.07671875 -103.390625 22.0859375 C-97.05741191 11.0191373 -97.05741191 11.0191373 -91 9 C-90.67 8.01 -90.34 7.02 -90 6 C-89.34 6 -88.68 6 -88 6 C-88 5.34 -88 4.68 -88 4 C-86.68 3.67 -85.36 3.34 -84 3 C-84 2.34 -84 1.68 -84 1 C-81.50252977 -0.27601331 -79.00222064 -1.54586171 -76.5 -2.8125 C-75.80390625 -3.16892578 -75.1078125 -3.52535156 -74.390625 -3.89257812 C-50.43630502 -15.98063775 -22.84916657 -14.32849074 0 0 Z " fill="#C51C1E" transform="translate(575,12)"/>
<path d="M0 0 C9.49631499 9.5617166 16.16288075 20.22631332 20.16796875 33.05273438 C20.49812988 34.07415527 20.82829102 35.09557617 21.16845703 36.14794922 C22.2682289 39.5695183 23.34597786 42.99736352 24.41796875 46.42773438 C24.80500977 47.66523437 25.19205078 48.90273437 25.59082031 50.17773438 C27.25412478 55.50248744 28.91352517 60.82843728 30.56542969 66.15673828 C33.40190528 75.28752307 36.36561363 84.36639165 39.41796875 93.42773438 C43.11104078 104.39149688 46.62440651 115.39667146 50.04296875 126.44824219 C53.04727334 136.15120716 56.17534317 145.80118969 59.41796875 155.42773438 C62.88583035 165.72294851 66.20774826 176.05002173 69.41796875 186.42773438 C72.60875126 196.74174092 75.90884955 207.00795596 79.35546875 217.24023438 C83.20600835 228.68245409 86.9149181 240.16330987 90.54296875 251.67773438 C90.78925018 252.45605621 91.03553162 253.23437805 91.28927612 254.0362854 C91.98384058 256.23347714 92.67431209 258.43190761 93.36328125 260.63085938 C93.57212448 261.29081406 93.78096771 261.95076874 93.99613953 262.63072205 C95.41796875 267.19733874 95.41796875 267.19733874 95.41796875 269.42773438 C88.91795875 266.48087518 84.74092506 260.89732766 80.35546875 255.42773438 C76.57408568 250.72201322 72.56731141 246.31097521 68.41796875 241.92773438 C63.62882506 236.86526959 59.11629313 231.69654715 54.765625 226.24804688 C50.84132065 221.53365796 46.60770013 217.10867722 42.4140625 212.63476562 C37.9450765 207.86592153 33.68772908 202.93279489 29.47265625 197.93945312 C28.93970947 197.31103516 28.4067627 196.68261719 27.85766602 196.03515625 C26.79439492 194.78060803 25.73481708 193.52291776 24.67944336 192.26171875 C23.9409314 191.39063477 23.9409314 191.39063477 23.1875 190.50195312 C22.75026611 189.98205811 22.31303223 189.46216309 21.86254883 188.92651367 C20.192241 187.19353755 18.35338981 185.85299171 16.41796875 184.42773438 C16.70753952 185.54621262 16.99711029 186.66469086 17.29545593 187.81706238 C20.04794144 198.44974685 22.79825618 209.08299085 25.54654217 219.71676159 C26.95892335 225.18132234 28.37202193 230.6456953 29.78686523 236.10961914 C31.15676208 241.40008209 32.52463715 246.69106426 33.89121437 251.98238564 C34.40830934 253.98316706 34.92608632 255.98377236 35.44461632 257.98418236 C38.36229136 269.24219308 41.19794364 280.51230702 43.8445158 291.83751965 C44.03716424 292.65948487 44.22981268 293.4814501 44.42829895 294.32832336 C44.67986866 295.41063217 44.67986866 295.41063217 44.93652058 296.51480579 C45.3539961 298.1735531 45.87706872 299.80503428 46.41796875 301.42773438 C45.42796875 301.42773438 44.43796875 301.42773438 43.41796875 301.42773438 C41.49369006 299.15830728 39.7651948 296.90693343 38.04296875 294.49023438 C36.96052382 293.00911594 35.87716055 291.52866831 34.79296875 290.04882812 C33.95572266 288.89809814 33.95572266 288.89809814 33.1015625 287.72412109 C30.4654433 284.12850955 27.75713421 280.58960018 25.04296875 277.05273438 C24.50478516 276.34938965 23.96660156 275.64604492 23.41210938 274.92138672 C18.90894142 269.04461931 14.35162157 263.2107334 9.79394531 257.3762207 C5.38772088 251.71742529 1.07860651 245.99070148 -3.20703125 240.24023438 C-8.09640248 233.68113817 -13.08502005 227.22850225 -18.23266602 220.87060547 C-22.33547207 215.78541796 -26.25538789 210.57636969 -30.15527344 205.3347168 C-33.38329405 201.00384179 -36.66844261 196.72651624 -40.01953125 192.49023438 C-45.79027697 185.19514073 -51.43083117 177.80325554 -57.07128906 170.40722656 C-62.61098649 163.14868314 -68.19255405 155.92331923 -73.80688477 148.72241211 C-78.27616594 142.98959562 -82.73976776 137.25784979 -87.08203125 131.42773438 C-90.76719271 126.4800639 -94.53798499 121.60446227 -98.33203125 116.74023438 C-103.12670115 110.59166802 -107.90361366 104.4303736 -112.64453125 98.24023438 C-113.16821289 97.55807861 -113.69189453 96.87592285 -114.23144531 96.1730957 C-115.22151501 94.87822917 -116.20688992 93.57975636 -117.18701172 92.27734375 C-118.10063388 91.06600292 -119.0263906 89.86369758 -119.96533203 88.671875 C-123.19070911 84.44477598 -124.89596884 80.40123782 -126.33203125 75.30273438 C-126.53957031 74.61308594 -126.74710938 73.9234375 -126.9609375 73.21289062 C-132.9394868 53.04010814 -130.36891686 32.18039204 -120.55078125 13.70898438 C-109.73403816 -4.31892077 -92.99528364 -15.64766672 -72.8046875 -20.85742188 C-46.73431789 -26.64030386 -19.13003444 -18.40198851 0 0 Z " fill="#C61C1E" transform="translate(368.58203125,78.572265625)"/>
<path d="M0 0 C0.33 0.99 0.66 1.98 1 3 C-3.455 6.96 -3.455 6.96 -8 11 C-8 8 -8 8 -6.25 5.95703125 C-5.5075 5.24933594 -4.765 4.54164063 -4 3.8125 C-2.88625 2.73935547 -2.88625 2.73935547 -1.75 1.64453125 C-1.1725 1.10183594 -0.595 0.55914063 0 0 Z " fill="#BC0D0E" transform="translate(443,692)"/>
</svg>
